<?xml version="1.0" encoding="utf-8"?>
<!-- Generator: Adobe Illustrator 23.0.2, SVG Export Plug-In . SVG Version: 6.00 Build 0)  -->
<svg version="1.1" id="Layer_1" xmlns="http://www.w3.org/2000/svg" xmlns:xlink="http://www.w3.org/1999/xlink" x="0px" y="0px"
	 viewBox="0 0 746.9 191.1" style="enable-background:new 0 0 746.9 191.1;" xml:space="preserve">
<style type="text/css">
	.st0{fill:#FFFFFF;}
</style>
<g>
	<path class="st0" d="M82.3,140c-3.9,2.6-9.3,3.8-16.4,3.8c-8.8,0-16.9-1.7-24.3-5.1c-7.4-3.4-14.6-7.9-21.6-13.6L0,149.1
		c9.2,8.3,19.5,14.5,30.8,18.6c11.3,4,22.8,6,34.5,6c8.3,0,15.9-1.1,22.8-3.2c6.9-2.1,12.8-5.2,17.7-9.2c4.9-4,8.8-9,11.6-14.9
		c2.8-5.9,4.1-12.7,4.1-20.3v-0.4c0-6.7-1.1-12.5-3.2-17.4c-2.1-4.8-5.3-9-9.5-12.6c-4.2-3.6-9.3-6.7-15.4-9.2
		c-6.1-2.6-13-4.9-20.8-6.9c-6.6-1.8-12.1-3.3-16.4-4.6c-4.3-1.3-7.7-2.7-10.2-4.2c-2.5-1.5-4.2-3.1-5.2-4.9c-1-1.8-1.4-4-1.4-6.5
		v-0.4c0-3.8,1.6-7,4.9-9.6c3.3-2.6,8.2-3.8,14.8-3.8c6.6,0,13.2,1.4,19.8,4.1c6.6,2.7,13.3,6.4,20.2,11.1l17.6-25.5
		c-7.9-6.3-16.6-11.1-26-14.5c-9.4-3.4-19.8-5.1-31.1-5.1c-7.9,0-15.1,1.1-21.7,3.3c-6.6,2.2-12.2,5.3-16.9,9.4
		c-4.7,4.1-8.4,9-11,14.6c-2.6,5.6-3.9,12-3.9,19v0.4c0,7.6,1.2,14,3.6,19.1c2.4,5.1,5.8,9.4,10.2,12.9c4.4,3.4,9.8,6.3,16.1,8.7
		c6.3,2.3,13.4,4.5,21.1,6.4c6.5,1.6,11.7,3.2,15.7,4.6c4,1.5,7.2,2.9,9.5,4.4c2.3,1.5,3.8,3,4.6,4.7c0.8,1.7,1.2,3.6,1.2,5.8v0.4
		C88.1,133.9,86.1,137.4,82.3,140z"/>
	<polygon class="st0" points="267.8,141.4 184.3,141.4 184.3,109.1 256.8,109.1 256.8,79 184.3,79 184.3,47.8 266.7,47.8 
		266.7,17.7 150.9,17.7 150.9,171.5 267.8,171.5 	"/>
	<polygon class="st0" points="375.9,172.6 379.8,165.6 427.6,46.4 392,46.4 362.4,126 322.2,17.7 284.9,17.7 347.1,172.6 	"/>
	<polygon class="st0" points="462.8,83 462.8,171.5 579.7,171.5 579.7,141.4 496.2,141.4 496.2,109.1 568.7,109.1 568.7,79 
		496.2,79 496.2,47.8 578.6,47.8 578.6,17.7 484.6,17.7 484.6,42.6 	"/>
	<polygon class="st0" points="643.4,73.8 717.9,171.5 746.6,171.5 746.6,17.7 713.3,17.7 713.3,112.4 641.2,17.7 610,17.7 
		610,171.5 643.4,171.5 	"/>
	<polygon class="st0" points="379.8,165.6 375.9,172.6 376.9,172.6 	"/>
	<rect x="379.6" y="0" class="st0" width="97.6" height="7.5"/>
	<rect y="184.6" class="st0" width="746.9" height="6.5"/>
</g>
</svg>
