<?xml version="1.0" encoding="utf-8"?>
<!-- Generator: Adobe Illustrator 23.0.2, SVG Export Plug-In . SVG Version: 6.00 Build 0)  -->
<svg version="1.1" id="Layer_1" xmlns="http://www.w3.org/2000/svg" xmlns:xlink="http://www.w3.org/1999/xlink" x="0px" y="0px"
	 viewBox="0 0 272.4 77.4" style="enable-background:new 0 0 272.4 77.4;" xml:space="preserve">
<style type="text/css">
	.st0{fill:#f2cf8d;}
	.st1{fill:#c0953d;}
</style>
<g>
	<polygon class="st0" points="127.4,0 169.1,0 135.8,77.4 120.3,77.4 146.4,14.4 127.5,14.4 	"/>
	<polygon class="st0" points="179.7,65.9 179.7,77.3 177.1,77.3 177.1,65.9 172.6,65.9 172.6,63.8 184.2,63.8 184.2,65.9 	"/>
	<polygon class="st0" points="198,63.8 198,65.9 190,65.9 190,69.5 197.1,69.5 197.1,71.5 190,71.5 190,75.1 198.2,75.1 198.2,77.3 
		187.4,77.3 187.4,63.8 	"/>
	<path class="st0" d="M208.7,75.2c0.9,0,1.6-0.1,2.3-0.4c0.6-0.3,1.3-0.7,2-1.3l1.6,1.5c-1.6,1.6-3.5,2.4-5.8,2.4
		c-2.3,0-4.2-0.7-5.6-2c-1.5-1.3-2.2-3-2.2-5s0.8-3.7,2.3-5c1.5-1.3,3.5-2,5.8-2c2.3,0,4.3,0.8,5.8,2.3l-1.6,1.6
		c-0.7-0.6-1.4-1-2-1.3c-0.6-0.2-1.4-0.4-2.2-0.4c-1.5,0-2.8,0.4-3.8,1.3c-1,0.9-1.5,2-1.5,3.4s0.5,2.5,1.5,3.4
		C206.1,74.7,207.3,75.2,208.7,75.2"/>
	<polygon class="st1" points="95.5,0 111.6,0 128.1,38.9 119.9,56.2 	"/>
	<path class="st1" d="M17.4,12.3c-1.2,1-1.8,2.3-1.8,3.9c0,1.6,0.7,2.9,2.2,3.8c1.5,0.9,5,2.1,10.4,3.4c5.4,1.3,9.6,3.2,12.6,5.8
		c3,2.6,4.5,6.3,4.5,11.3c0,5-1.9,9-5.8,12c-3.8,3.1-8.9,4.6-15.2,4.6c-9,0-17.2-3.2-24.4-9.7l7.6-9c6.2,5.2,11.8,7.8,17.1,7.8
		c2.3,0,4.2-0.5,5.5-1.5c1.3-1,2-2.3,2-4c0-1.7-0.7-3-2.1-3.9c-1.4-1-4.2-2-8.4-3c-6.6-1.5-11.5-3.5-14.6-6
		C4,25.5,2.5,21.6,2.5,16.4c0-5.2,1.9-9.3,5.8-12.1S17,0,22.9,0c3.8,0,7.6,0.6,11.4,1.9c3.8,1.3,7.1,3.1,10,5.4l-6.5,9
		c-5-3.6-10.1-5.5-15.4-5.5C20.3,10.8,18.7,11.3,17.4,12.3"/>
	<polygon class="st1" points="93,0 93,11.4 63.5,11.4 63.5,23.1 89.1,23.1 89.1,34 63.5,34 63.5,45.8 92.8,45.8 92.8,57.1 
		50.8,57.1 50.8,0 	"/>
	<polygon class="st1" points="214.8,0 214.8,11.4 185.3,11.4 185.3,23.1 210.9,23.1 210.9,34 185.3,34 185.3,45.8 214.7,45.8 
		214.7,57.1 172.6,57.1 172.6,0 	"/>
	<polygon class="st1" points="259.6,0 272.4,0 272.4,57.1 259.6,57.1 232.4,21.3 232.4,57.1 219.7,57.1 219.7,0 231.6,0 259.6,36.8 
			"/>
</g>
</svg>
